# xmcd CD database file generated by Grip 3.3.1
# 
# Track frame offsets:
#       150
#       5785
#       20395
#       33914
#       51733
#       65339
#       85678
#       103044
#       132396
#       157362
#       175836
# 
# Disc length: 2975 seconds
# 
# Revision: 1
# Processed by: cddbd v1.5.2PL0 Copyright (c) Steve Scherf et al.
# Submitted via: Grip 3.3.1
# 
DISCID=950b9d0b
DTITLE=Graveyard Train - The Serpent And The Crow
DYEAR=2008
DGENRE=Other
TTITLE0=Death Part 1
TTITLE1=Boneyard
TTITLE2=The Deep, Deep Well
TTITLE3=Ballad for Beelzebub
TTITLE4=The Scarecrow
TTITLE5=The Invisible Man Blues
TTITLE6=Murder
TTITLE7=The Devils Blend
TTITLE8=Lonesome Road Coffee Lounge
TTITLE9=Voodoo Man
TTITLE10=Death Parts 2 and 3
EXTD=
EXTT0=
EXTT1=
EXTT2=
EXTT3=
EXTT4=
EXTT5=
EXTT6=
EXTT7=
EXTT8=
EXTT9=
EXTT10=
PLAYORDER=
